{
	"asset":{
		"generator":"Khronos glTF Blender I/O v3.6.27",
		"version":"2.0"
	},
	"extensionsUsed":[
		"KHR_materials_specular",
		"KHR_materials_ior"
	],
	"scene":0,
	"scenes":[
		{
			"name":"Scene",
			"nodes":[
				0,
				1,
				2,
				3,
				4
			]
		}
	],
	"nodes":[
		{
			"mesh":0,
			"name":"Landscape.001"
		},
		{
			"mesh":1,
			"name":"Mountains",
			"translation":[
				-0.7843388319015503,
				-0.043791480362415314,
				0
			]
		},
		{
			"mesh":2,
			"name":"Log"
		},
		{
			"mesh":3,
			"name":"Landscape.002"
		},
		{
			"mesh":4,
			"name":"Landscape.003"
		}
	],
	"materials":[
		{
			"doubleSided":true,
			"extensions":{
				"KHR_materials_specular":{
					"specularColorFactor":[
						0.883869661431573,
						0.883869661431573,
						0.883869661431573
					]
				},
				"KHR_materials_ior":{
					"ior":1.4500000476837158
				}
			},
			"name":"Mountains",
			"pbrMetallicRoughness":{
				"baseColorFactor":[
					0.800000011920929,
					0.800000011920929,
					0.800000011920929,
					1
				],
				"metallicFactor":0
			}
		},
		{
			"doubleSided":true,
			"extensions":{
				"KHR_materials_specular":{
					"specularColorFactor":[
						0.883869661431573,
						0.883869661431573,
						0.883869661431573
					]
				},
				"KHR_materials_ior":{
					"ior":1.4500000476837158
				}
			},
			"name":"Mountains",
			"pbrMetallicRoughness":{
				"baseColorFactor":[
					0.800000011920929,
					0.800000011920929,
					0.800000011920929,
					1
				],
				"metallicFactor":0
			}
		},
		{
			"doubleSided":true,
			"name":"Wood",
			"pbrMetallicRoughness":{
				"baseColorFactor":[
					0.8000000715255737,
					0.5554892420768738,
					0.2745964527130127,
					1
				],
				"metallicFactor":0,
				"roughnessFactor":0.5
			}
		},
		{
			"doubleSided":true,
			"name":"OuterBark",
			"pbrMetallicRoughness":{
				"baseColorFactor":[
					0.10120145976543427,
					0.025806203484535217,
					0,
					1
				],
				"metallicFactor":0
			}
		},
		{
			"doubleSided":true,
			"name":"InnerBark",
			"pbrMetallicRoughness":{
				"baseColorFactor":[
					0.3464595377445221,
					0.08409116417169571,
					0,
					1
				],
				"metallicFactor":0
			}
		}
	],
	"meshes":[
		{
			"name":"Landscape.001",
			"primitives":[
				{
					"attributes":{
						"POSITION":0,
						"NORMAL":1,
						"TEXCOORD_0":2
					},
					"indices":3,
					"material":0
				}
			]
		},
		{
			"name":"Landscape.002",
			"primitives":[
				{
					"attributes":{
						"POSITION":4,
						"NORMAL":5,
						"TEXCOORD_0":6
					},
					"indices":7,
					"material":1
				}
			]
		},
		{
			"name":"Cylinder",
			"primitives":[
				{
					"attributes":{
						"POSITION":8,
						"NORMAL":9,
						"TEXCOORD_0":10
					},
					"indices":11,
					"material":2
				},
				{
					"attributes":{
						"POSITION":12,
						"NORMAL":13,
						"TEXCOORD_0":14
					},
					"indices":15,
					"material":3
				},
				{
					"attributes":{
						"POSITION":16,
						"NORMAL":17,
						"TEXCOORD_0":18
					},
					"indices":19,
					"material":4
				}
			]
		},
		{
			"name":"Landscape.003",
			"primitives":[
				{
					"attributes":{
						"POSITION":20,
						"NORMAL":21,
						"TEXCOORD_0":22
					},
					"indices":23,
					"material":1
				}
			]
		},
		{
			"name":"Landscape.004",
			"primitives":[
				{
					"attributes":{
						"POSITION":24,
						"NORMAL":25,
						"TEXCOORD_0":26
					},
					"indices":27,
					"material":0
				}
			]
		}
	],
	"accessors":[
		{
			"bufferView":0,
			"componentType":5126,
			"count":8192,
			"max":[
				1,
				0.0821022167801857,
				1
			],
			"min":[
				0.007874015718698502,
				-0.10000000149011612,
				-1
			],
			"type":"VEC3"
		},
		{
			"bufferView":1,
			"componentType":5126,
			"count":8192,
			"type":"VEC3"
		},
		{
			"bufferView":2,
			"componentType":5126,
			"count":8192,
			"type":"VEC2"
		},
		{
			"bufferView":3,
			"componentType":5123,
			"count":48006,
			"type":"SCALAR"
		},
		{
			"bufferView":4,
			"componentType":5126,
			"count":574,
			"max":[
				0.1899999976158142,
				0.3864400386810303,
				1
			],
			"min":[
				-0.1899999976158142,
				-0.0006067132344469428,
				-1
			],
			"type":"VEC3"
		},
		{
			"bufferView":5,
			"componentType":5126,
			"count":574,
			"type":"VEC3"
		},
		{
			"bufferView":6,
			"componentType":5126,
			"count":574,
			"type":"VEC2"
		},
		{
			"bufferView":7,
			"componentType":5123,
			"count":2949,
			"type":"SCALAR"
		},
		{
			"bufferView":8,
			"componentType":5126,
			"count":488,
			"max":[
				0.8211333751678467,
				-0.005665354430675507,
				-0.21491585671901703
			],
			"min":[
				0.767221987247467,
				-0.018185308203101158,
				-0.2763787806034088
			],
			"type":"VEC3"
		},
		{
			"bufferView":9,
			"componentType":5126,
			"count":488,
			"type":"VEC3"
		},
		{
			"bufferView":10,
			"componentType":5126,
			"count":488,
			"type":"VEC2"
		},
		{
			"bufferView":11,
			"componentType":5123,
			"count":1608,
			"type":"SCALAR"
		},
		{
			"bufferView":12,
			"componentType":5126,
			"count":1090,
			"max":[
				0.8257443904876709,
				-0.005665354430675507,
				-0.21115677058696747
			],
			"min":[
				0.7559790015220642,
				-0.061885684728622437,
				-0.2809222638607025
			],
			"type":"VEC3"
		},
		{
			"bufferView":13,
			"componentType":5126,
			"count":1090,
			"type":"VEC3"
		},
		{
			"bufferView":14,
			"componentType":5126,
			"count":1090,
			"type":"VEC2"
		},
		{
			"bufferView":15,
			"componentType":5123,
			"count":4440,
			"type":"SCALAR"
		},
		{
			"bufferView":16,
			"componentType":5126,
			"count":543,
			"max":[
				0.8176343441009521,
				-0.006362187210470438,
				-0.21927498281002045
			],
			"min":[
				0.7640975713729858,
				-0.010013347491621971,
				-0.2728034555912018
			],
			"type":"VEC3"
		},
		{
			"bufferView":17,
			"componentType":5126,
			"count":543,
			"type":"VEC3"
		},
		{
			"bufferView":18,
			"componentType":5126,
			"count":543,
			"type":"VEC2"
		},
		{
			"bufferView":19,
			"componentType":5123,
			"count":2304,
			"type":"SCALAR"
		},
		{
			"bufferView":20,
			"componentType":5126,
			"count":330,
			"max":[
				0.007874015718698502,
				0.21869641542434692,
				0.9996482133865356
			],
			"min":[
				-0.5590550899505615,
				-0.10000000149011612,
				-1
			],
			"type":"VEC3"
		},
		{
			"bufferView":21,
			"componentType":5126,
			"count":330,
			"type":"VEC3"
		},
		{
			"bufferView":22,
			"componentType":5126,
			"count":330,
			"type":"VEC2"
		},
		{
			"bufferView":23,
			"componentType":5123,
			"count":1728,
			"type":"SCALAR"
		},
		{
			"bufferView":24,
			"componentType":5126,
			"count":264,
			"max":[
				-0.5590550899505615,
				0.03144611418247223,
				0.9996179342269897
			],
			"min":[
				-1,
				-0.0913252979516983,
				-1
			],
			"type":"VEC3"
		},
		{
			"bufferView":25,
			"componentType":5126,
			"count":264,
			"type":"VEC3"
		},
		{
			"bufferView":26,
			"componentType":5126,
			"count":264,
			"type":"VEC2"
		},
		{
			"bufferView":27,
			"componentType":5123,
			"count":1344,
			"type":"SCALAR"
		}
	],
	"bufferViews":[
		{
			"buffer":0,
			"byteLength":98304,
			"byteOffset":0,
			"target":34962
		},
		{
			"buffer":0,
			"byteLength":98304,
			"byteOffset":98304,
			"target":34962
		},
		{
			"buffer":0,
			"byteLength":65536,
			"byteOffset":196608,
			"target":34962
		},
		{
			"buffer":0,
			"byteLength":96012,
			"byteOffset":262144,
			"target":34963
		},
		{
			"buffer":0,
			"byteLength":6888,
			"byteOffset":358156,
			"target":34962
		},
		{
			"buffer":0,
			"byteLength":6888,
			"byteOffset":365044,
			"target":34962
		},
		{
			"buffer":0,
			"byteLength":4592,
			"byteOffset":371932,
			"target":34962
		},
		{
			"buffer":0,
			"byteLength":5898,
			"byteOffset":376524,
			"target":34963
		},
		{
			"buffer":0,
			"byteLength":5856,
			"byteOffset":382424,
			"target":34962
		},
		{
			"buffer":0,
			"byteLength":5856,
			"byteOffset":388280,
			"target":34962
		},
		{
			"buffer":0,
			"byteLength":3904,
			"byteOffset":394136,
			"target":34962
		},
		{
			"buffer":0,
			"byteLength":3216,
			"byteOffset":398040,
			"target":34963
		},
		{
			"buffer":0,
			"byteLength":13080,
			"byteOffset":401256,
			"target":34962
		},
		{
			"buffer":0,
			"byteLength":13080,
			"byteOffset":414336,
			"target":34962
		},
		{
			"buffer":0,
			"byteLength":8720,
			"byteOffset":427416,
			"target":34962
		},
		{
			"buffer":0,
			"byteLength":8880,
			"byteOffset":436136,
			"target":34963
		},
		{
			"buffer":0,
			"byteLength":6516,
			"byteOffset":445016,
			"target":34962
		},
		{
			"buffer":0,
			"byteLength":6516,
			"byteOffset":451532,
			"target":34962
		},
		{
			"buffer":0,
			"byteLength":4344,
			"byteOffset":458048,
			"target":34962
		},
		{
			"buffer":0,
			"byteLength":4608,
			"byteOffset":462392,
			"target":34963
		},
		{
			"buffer":0,
			"byteLength":3960,
			"byteOffset":467000,
			"target":34962
		},
		{
			"buffer":0,
			"byteLength":3960,
			"byteOffset":470960,
			"target":34962
		},
		{
			"buffer":0,
			"byteLength":2640,
			"byteOffset":474920,
			"target":34962
		},
		{
			"buffer":0,
			"byteLength":3456,
			"byteOffset":477560,
			"target":34963
		},
		{
			"buffer":0,
			"byteLength":3168,
			"byteOffset":481016,
			"target":34962
		},
		{
			"buffer":0,
			"byteLength":3168,
			"byteOffset":484184,
			"target":34962
		},
		{
			"buffer":0,
			"byteLength":2112,
			"byteOffset":487352,
			"target":34962
		},
		{
			"buffer":0,
			"byteLength":2688,
			"byteOffset":489464,
			"target":34963
		}
	],
	"buffers":[
		{
			"byteLength":492152,
			"uri":"data:application/octet-stream;base64,"
		}
	]
}
