{
	"asset":{
		"generator":"Khronos glTF Blender I/O v3.6.27",
		"version":"2.0"
	},
	"extensionsUsed":[
		"KHR_materials_specular",
		"KHR_materials_ior"
	],
	"scene":0,
	"scenes":[
		{
			"name":"Scene",
			"nodes":[
				0,
				1,
				2
			]
		}
	],
	"nodes":[
		{
			"mesh":0,
			"name":"Landscape.001"
		},
		{
			"mesh":1,
			"name":"Mountains",
			"translation":[
				-0.7843388319015503,
				-0.043791480362415314,
				0
			]
		},
		{
			"mesh":2,
			"name":"Log"
		}
	],
	"materials":[
		{
			"doubleSided":true,
			"extensions":{
				"KHR_materials_specular":{
					"specularColorFactor":[
						0.883869661431573,
						0.883869661431573,
						0.883869661431573
					]
				},
				"KHR_materials_ior":{
					"ior":1.4500000476837158
				}
			},
			"name":"Mountains",
			"pbrMetallicRoughness":{
				"baseColorFactor":[
					0.800000011920929,
					0.800000011920929,
					0.800000011920929,
					1
				],
				"metallicFactor":0
			}
		},
		{
			"doubleSided":true,
			"name":"Wood",
			"pbrMetallicRoughness":{
				"baseColorFactor":[
					0.8000000715255737,
					0.5554892420768738,
					0.2745964527130127,
					1
				],
				"metallicFactor":0,
				"roughnessFactor":0.5
			}
		},
		{
			"doubleSided":true,
			"name":"OuterBark",
			"pbrMetallicRoughness":{
				"baseColorFactor":[
					0.10120145976543427,
					0.025806203484535217,
					0,
					1
				],
				"metallicFactor":0
			}
		},
		{
			"doubleSided":true,
			"name":"InnerBark",
			"pbrMetallicRoughness":{
				"baseColorFactor":[
					0.3464595377445221,
					0.08409116417169571,
					0,
					1
				],
				"metallicFactor":0
			}
		}
	],
	"meshes":[
		{
			"name":"Landscape.001",
			"primitives":[
				{
					"attributes":{
						"POSITION":0,
						"NORMAL":1,
						"TEXCOORD_0":2
					},
					"indices":3,
					"material":0
				}
			]
		},
		{
			"name":"Landscape.002",
			"primitives":[
				{
					"attributes":{
						"POSITION":4,
						"NORMAL":5,
						"TEXCOORD_0":6
					},
					"indices":7,
					"material":0
				}
			]
		},
		{
			"name":"Cylinder",
			"primitives":[
				{
					"attributes":{
						"POSITION":8,
						"NORMAL":9,
						"TEXCOORD_0":10
					},
					"indices":11,
					"material":1
				},
				{
					"attributes":{
						"POSITION":12,
						"NORMAL":13,
						"TEXCOORD_0":14
					},
					"indices":15,
					"material":2
				},
				{
					"attributes":{
						"POSITION":16,
						"NORMAL":17,
						"TEXCOORD_0":18
					},
					"indices":19,
					"material":3
				}
			]
		}
	],
	"accessors":[
		{
			"bufferView":0,
			"componentType":5126,
			"count":16384,
			"max":[
				1,
				0.2276304066181183,
				1
			],
			"min":[
				-1,
				-0.10000000149011612,
				-1
			],
			"type":"VEC3"
		},
		{
			"bufferView":1,
			"componentType":5126,
			"count":16384,
			"type":"VEC3"
		},
		{
			"bufferView":2,
			"componentType":5126,
			"count":16384,
			"type":"VEC2"
		},
		{
			"bufferView":3,
			"componentType":5123,
			"count":96774,
			"type":"SCALAR"
		},
		{
			"bufferView":4,
			"componentType":5126,
			"count":16384,
			"max":[
				0.1899999976158142,
				0.4131343364715576,
				1
			],
			"min":[
				-0.1899999976158142,
				-0.0033915801905095577,
				-1
			],
			"type":"VEC3"
		},
		{
			"bufferView":5,
			"componentType":5126,
			"count":16384,
			"type":"VEC3"
		},
		{
			"bufferView":6,
			"componentType":5126,
			"count":16384,
			"type":"VEC2"
		},
		{
			"bufferView":7,
			"componentType":5123,
			"count":96774,
			"type":"SCALAR"
		},
		{
			"bufferView":8,
			"componentType":5126,
			"count":492,
			"max":[
				0.8211333751678467,
				-0.005665354430675507,
				-0.21491585671901703
			],
			"min":[
				0.767221987247467,
				-0.018185308203101158,
				-0.2763787806034088
			],
			"type":"VEC3"
		},
		{
			"bufferView":9,
			"componentType":5126,
			"count":492,
			"type":"VEC3"
		},
		{
			"bufferView":10,
			"componentType":5126,
			"count":492,
			"type":"VEC2"
		},
		{
			"bufferView":11,
			"componentType":5123,
			"count":1608,
			"type":"SCALAR"
		},
		{
			"bufferView":12,
			"componentType":5126,
			"count":1088,
			"max":[
				0.8257443904876709,
				-0.005665354430675507,
				-0.21115677058696747
			],
			"min":[
				0.7559790015220642,
				-0.061885684728622437,
				-0.2809222638607025
			],
			"type":"VEC3"
		},
		{
			"bufferView":13,
			"componentType":5126,
			"count":1088,
			"type":"VEC3"
		},
		{
			"bufferView":14,
			"componentType":5126,
			"count":1088,
			"type":"VEC2"
		},
		{
			"bufferView":15,
			"componentType":5123,
			"count":4440,
			"type":"SCALAR"
		},
		{
			"bufferView":16,
			"componentType":5126,
			"count":544,
			"max":[
				0.8176343441009521,
				-0.006362187210470438,
				-0.21927498281002045
			],
			"min":[
				0.7640975713729858,
				-0.010013347491621971,
				-0.2728034555912018
			],
			"type":"VEC3"
		},
		{
			"bufferView":17,
			"componentType":5126,
			"count":544,
			"type":"VEC3"
		},
		{
			"bufferView":18,
			"componentType":5126,
			"count":544,
			"type":"VEC2"
		},
		{
			"bufferView":19,
			"componentType":5123,
			"count":2304,
			"type":"SCALAR"
		}
	],
	"bufferViews":[
		{
			"buffer":0,
			"byteLength":196608,
			"byteOffset":0,
			"target":34962
		},
		{
			"buffer":0,
			"byteLength":196608,
			"byteOffset":196608,
			"target":34962
		},
		{
			"buffer":0,
			"byteLength":131072,
			"byteOffset":393216,
			"target":34962
		},
		{
			"buffer":0,
			"byteLength":193548,
			"byteOffset":524288,
			"target":34963
		},
		{
			"buffer":0,
			"byteLength":196608,
			"byteOffset":717836,
			"target":34962
		},
		{
			"buffer":0,
			"byteLength":196608,
			"byteOffset":914444,
			"target":34962
		},
		{
			"buffer":0,
			"byteLength":131072,
			"byteOffset":1111052,
			"target":34962
		},
		{
			"buffer":0,
			"byteLength":193548,
			"byteOffset":1242124,
			"target":34963
		},
		{
			"buffer":0,
			"byteLength":5904,
			"byteOffset":1435672,
			"target":34962
		},
		{
			"buffer":0,
			"byteLength":5904,
			"byteOffset":1441576,
			"target":34962
		},
		{
			"buffer":0,
			"byteLength":3936,
			"byteOffset":1447480,
			"target":34962
		},
		{
			"buffer":0,
			"byteLength":3216,
			"byteOffset":1451416,
			"target":34963
		},
		{
			"buffer":0,
			"byteLength":13056,
			"byteOffset":1454632,
			"target":34962
		},
		{
			"buffer":0,
			"byteLength":13056,
			"byteOffset":1467688,
			"target":34962
		},
		{
			"buffer":0,
			"byteLength":8704,
			"byteOffset":1480744,
			"target":34962
		},
		{
			"buffer":0,
			"byteLength":8880,
			"byteOffset":1489448,
			"target":34963
		},
		{
			"buffer":0,
			"byteLength":6528,
			"byteOffset":1498328,
			"target":34962
		},
		{
			"buffer":0,
			"byteLength":6528,
			"byteOffset":1504856,
			"target":34962
		},
		{
			"buffer":0,
			"byteLength":4352,
			"byteOffset":1511384,
			"target":34962
		},
		{
			"buffer":0,
			"byteLength":4608,
			"byteOffset":1515736,
			"target":34963
		}
	],
	"buffers":[
		{
			"byteLength":1520344,
			"uri":"data:application/octet-stream;base64,"
		}
	]
}
